<svg
  width="132"
  height="48"
  viewBox="0 0 132 48"
  fill="none"
  xmlns="http://www.w3.org/2000/svg"
>
  <path
    d="M62.1237 46.085C62.1237 45.7252 62.0309 45.4583 61.8336 45.261C61.6363 45.0637 61.2882 44.8896 60.7891 44.7039C60.3829 44.5763 59.9883 44.379 59.6286 44.1353C59.3849 43.9612 59.176 43.7291 59.0251 43.4622C58.6653 42.7078 58.8162 41.8026 59.3965 41.1991C59.7794 40.8277 60.2669 40.6536 60.882 40.6536C61.2765 40.642 61.6595 40.7465 61.9961 40.9322C62.321 41.1179 62.5764 41.3848 62.7504 41.7097C62.9245 42.0463 63.0174 42.4293 63.0174 42.8123H62.1121C62.1121 42.3712 62.0077 42.0231 61.7872 41.791C61.5667 41.5589 61.2649 41.4312 60.8704 41.4312C60.557 41.408 60.2553 41.5241 60.0232 41.7329C59.8259 41.9418 59.7214 42.2204 59.7214 42.5917C59.7098 42.8819 59.8375 43.1604 60.0464 43.3461C60.2669 43.555 60.5918 43.7291 61.0444 43.8916C61.7524 44.1237 62.2514 44.4138 62.5531 44.7504C62.8549 45.0869 63.0058 45.5395 63.0058 46.085C63.0058 46.6652 62.8201 47.1295 62.4371 47.4776C62.0541 47.8258 61.5435 47.9999 60.9052 47.9999C60.5106 47.9999 60.1044 47.907 59.7562 47.7329C59.4197 47.5589 59.1295 47.2919 58.9323 46.967C58.7234 46.6304 58.6189 46.2358 58.6305 45.8297H59.5357C59.5357 46.2707 59.6634 46.6188 59.9071 46.8625C60.174 47.1179 60.5454 47.2455 60.9168 47.2339C61.3114 47.2339 61.6131 47.1295 61.8104 46.9322C62.0309 46.6885 62.1353 46.3867 62.1237 46.085Z"
    fill="black"></path>
  <path
    d="M68.8549 44.9478C68.8549 45.9226 68.646 46.677 68.2282 47.1992C67.8104 47.7215 67.2186 47.9884 66.4526 47.9884C65.7215 47.9884 65.1412 47.7331 64.7118 47.2224C64.2824 46.7118 64.0619 45.9807 64.0503 45.0522V43.706C64.0503 42.7544 64.2592 42 64.6886 41.4662C65.1064 40.9207 65.6983 40.6538 66.4526 40.6538C67.207 40.6538 67.7872 40.9091 68.2166 41.4313C68.6344 41.9536 68.8549 42.6847 68.8665 43.648L68.8549 44.9478ZM67.9613 43.6944C67.9613 42.94 67.8337 42.383 67.5899 42.0116C67.3462 41.6402 66.9633 41.4546 66.4526 41.4546C65.9536 41.4546 65.5822 41.6402 65.3269 42.0116C65.0716 42.383 64.9439 42.94 64.9439 43.6596V44.9362C64.9439 45.6673 65.0716 46.2244 65.3269 46.6074C65.5822 46.9903 65.9652 47.1876 66.4642 47.1876C66.9633 47.1876 67.3462 47.0135 67.5783 46.6538C67.8105 46.294 67.9497 45.7602 67.9613 45.029V43.6944Z"
    fill="black"></path>
  <path
    d="M71.1528 47.118H73.9613V47.884H70.2476V40.735H71.1528V47.118Z"
    fill="black"></path>
  <path
    d="M79.0213 40.7466V45.8298C79.0096 46.5029 78.8124 47.0367 78.4294 47.4197C78.0464 47.8027 77.5009 48 76.8162 48C76.1083 48 75.5628 47.8143 75.1915 47.4429C74.8201 47.0716 74.6228 46.5377 74.6228 45.8414V40.7582H75.5164V45.795C75.5164 46.2708 75.6209 46.6306 75.8182 46.8743C76.0155 47.118 76.352 47.234 76.8046 47.234C77.2572 47.234 77.5938 47.118 77.8027 46.8743C78.0116 46.6306 78.1044 46.2824 78.1044 45.795V40.7582H79.0213V40.7466Z"
    fill="black"></path>
  <path
    d="M84.5803 41.5126H82.7002V47.8839H81.8066V41.5126H79.9265V40.7466H84.5803V41.5126Z"
    fill="black"></path>
  <path d="M86.5764 47.8955H85.6827V40.7466H86.5764V47.8955Z" fill="black"
  ></path>
  <path
    d="M92.7968 44.9478C92.7968 45.9226 92.5879 46.677 92.1701 47.1992C91.7523 47.7215 91.1605 47.9884 90.3945 47.9884C89.6634 47.9884 89.0831 47.7331 88.6537 47.2224C88.2243 46.7118 88.0038 45.9807 87.9922 45.0522V43.706C87.9922 42.7544 88.2011 42 88.6305 41.4662C89.0483 40.9207 89.6402 40.6538 90.3945 40.6538C91.1489 40.6538 91.7291 40.9091 92.1585 41.4313C92.5879 41.9536 92.7968 42.6847 92.8084 43.648L92.7968 44.9478ZM91.9032 43.6944C91.9032 42.94 91.7756 42.383 91.5318 42.0116C91.2881 41.6402 90.9051 41.4546 90.3945 41.4546C89.9071 41.4546 89.5241 41.6402 89.2688 42.0116C89.0135 42.383 88.8858 42.94 88.8858 43.6596V44.9362C88.8858 45.6673 89.0135 46.2244 89.2688 46.6074C89.5241 46.9903 89.9071 47.1876 90.4061 47.1876C90.9051 47.1876 91.2881 47.0135 91.5202 46.6538C91.7523 46.294 91.8916 45.7602 91.9032 45.029V43.6944Z"
    fill="black"></path>
  <path
    d="M98.8548 47.8955H97.9496L95.0831 42.383V47.8955H94.1779V40.7466H95.0831L97.9496 46.2824V40.7466H98.8432L98.8548 47.8955Z"
    fill="black"></path>
  <path
    d="M103.532 46.0851C103.532 45.7253 103.439 45.4584 103.242 45.2611C103.044 45.0638 102.696 44.8898 102.197 44.7041C101.791 44.5764 101.396 44.3791 101.037 44.1354C100.793 43.9613 100.584 43.7292 100.433 43.4623C100.073 42.7079 100.213 41.8027 100.805 41.1876C101.188 40.8163 101.675 40.6422 102.29 40.6422C102.685 40.6306 103.068 40.735 103.404 40.9207C103.729 41.1064 103.984 41.3733 104.159 41.6983C104.333 42.0348 104.425 42.4178 104.425 42.8008H103.52C103.52 42.3598 103.416 42.0116 103.195 41.7795C102.975 41.5474 102.673 41.4197 102.278 41.4197C101.965 41.3965 101.663 41.5126 101.431 41.7215C101.234 41.9304 101.13 42.2089 101.13 42.5803C101.118 42.8704 101.246 43.1489 101.454 43.3346C101.745 43.5783 102.093 43.764 102.453 43.8801C103.16 44.1122 103.659 44.4023 103.961 44.7389C104.263 45.0754 104.414 45.528 104.414 46.0735C104.414 46.6538 104.228 47.118 103.845 47.4662C103.474 47.8143 102.952 47.9884 102.313 47.9884C101.919 47.9884 101.512 47.8956 101.164 47.7215C100.828 47.5474 100.538 47.2805 100.329 46.9555C100.12 46.619 100.015 46.2244 100.027 45.8182H100.932C100.932 46.2592 101.06 46.6074 101.304 46.8511C101.571 47.1064 101.942 47.234 102.313 47.2224C102.708 47.2224 103.01 47.118 103.207 46.9207C103.439 46.6886 103.543 46.3985 103.532 46.0851Z"
    fill="black"></path>
  <path
    d="M108.476 0C99.6789 0 92.0193 4.9323 88.0967 12.1741H91.7756C95.4661 6.54545 101.745 3.16828 108.476 3.15667C119.501 3.15667 128.472 12.1277 128.472 23.1528C128.472 34.1779 119.501 43.1489 108.476 43.1489V46.3172C121.242 46.3172 131.629 35.9304 131.629 23.1644C131.629 10.3985 121.242 0 108.476 0Z"
    fill="black"></path>
  <path
    d="M12.8936 34.3404H9.19149V26.472H3.71373V34.3404H0V15.9575H3.71373V23.3965H9.19149V15.9575H12.8936V34.3404Z"
    fill="black"></path>
  <path
    d="M24.8704 30.5803H19.8105L18.824 34.3404H14.9014L20.6344 15.9575H24.0348L29.8143 34.3404H25.8569L24.8704 30.5803ZM20.6112 27.4816H24.0464L22.3288 20.9362L20.6112 27.4816Z"
    fill="black"></path>
  <path
    d="M35.2456 31.2534H41.7562V34.3288H31.5319V15.9575H35.2456V31.2534Z"
    fill="black"></path>
  <path
    d="M47.6171 27.8762V34.3404H43.9033V15.9575H50.1702C51.9923 15.9575 53.4314 16.5261 54.5223 17.6518C55.6132 18.7776 56.147 20.2399 56.147 22.0387C56.147 23.8375 55.6132 25.265 54.5455 26.3095C53.4778 27.354 51.9923 27.8762 50.1006 27.8762H47.6171ZM47.6171 24.7776H50.1702C50.8782 24.7776 51.4236 24.5455 51.8066 24.0813C52.1896 23.617 52.3869 22.9439 52.3869 22.0619C52.3869 21.1451 52.1896 20.4139 51.795 19.8685C51.4352 19.3462 50.8434 19.0329 50.2051 19.0445H47.6171V24.7776Z"
    fill="black"></path>
  <path
    d="M71.4545 34.3404H67.7408L62.321 22.294V34.3404H58.6073V15.9575H62.321L67.764 28.0271V15.9575H71.4661L71.4545 34.3404Z"
    fill="#0028A6"></path>
  <path
    d="M83.9188 26.3791H78.1393V31.2534H84.9865V34.3288H74.4371V15.9575H84.9632V19.0561H78.1393V23.3965H83.9188V26.3791Z"
    fill="#0028A6"></path>
  <path
    d="M99.0754 15.9575V28.677C99.0638 30.5919 98.5299 32.0542 97.4971 33.0638C96.4642 34.0735 94.9787 34.5842 93.0406 34.5842C91.0677 34.5842 89.5706 34.0735 88.5261 33.0406C87.4816 32.0078 86.9709 30.5339 86.9709 28.5842V15.9575H90.7079V28.6074C90.7079 29.6519 90.8704 30.3946 91.2069 30.8472C91.5435 31.2882 92.1586 31.5203 93.0406 31.5203C93.9226 31.5203 94.5261 31.2998 94.8626 30.8588C95.1992 30.4178 95.3617 29.6867 95.3733 28.677V15.9575H99.0754Z"
    fill="#0028A6"></path>
  <path
    d="M114.731 34.3404H111.017L105.598 22.294V34.3404H101.884V15.9575H105.598L111.041 28.0271V15.9575H114.743V34.3404H114.731Z"
    fill="#0028A6"></path>
</svg>